<svg width="15" height="15" viewBox="0 0 15 15" fill="none" xmlns="http://www.w3.org/2000/svg">
<path d="M12.8038 2.19661C9.87482 -0.73204 5.12591 -0.732367 2.19661 2.19661C-0.732367 5.12559 -0.73204 9.87449 2.19661 12.8038C5.12559 15.7321 9.87449 15.7324 12.8038 12.8038C15.7324 9.87449 15.7321 5.12591 12.8038 2.19661ZM8.47816 10.7611C8.47816 11.3015 8.04022 11.7394 7.49988 11.7394C6.95954 11.7394 6.5216 11.3015 6.5216 10.7611V6.84802C6.5216 6.30768 6.95954 5.86973 7.49988 5.86973C8.04022 5.86973 8.47816 6.30768 8.47816 6.84802V10.7611ZM7.48259 5.17581C6.9191 5.17581 6.54344 4.77667 6.55518 4.28394C6.54344 3.76741 6.9191 3.38033 7.49401 3.38033C8.06924 3.38033 8.43316 3.76773 8.44522 4.28394C8.4449 4.77667 8.06956 5.17581 7.48259 5.17581Z" fill="#177FE9"/>
</svg>
