<svg width="28" height="28" viewBox="0 0 28 28" fill="none" xmlns="http://www.w3.org/2000/svg">
<g clip-path="url(#clip0_1_101)">
<path d="M14 27.125C21.2487 27.125 27.125 21.2487 27.125 14C27.125 6.75126 21.2487 0.875 14 0.875C6.75126 0.875 0.875 6.75126 0.875 14C0.875 21.2487 6.75126 27.125 14 27.125Z" fill="#FBC533"/>
<path d="M14 0.875015C11.9121 0.871882 9.85374 1.36916 7.99751 2.32518C5.01668 4.73085 2.5976 8.50676 2.5976 12.6379C2.5976 21.4492 8.33818 25.8452 15.5873 25.8452C17.8936 25.7895 20.1606 25.2355 22.2326 24.2212C24.3476 22.5175 25.8819 20.1996 26.6242 17.5872C27.3665 14.9748 27.2801 12.1964 26.3769 9.63516C25.4737 7.07391 23.7982 4.85591 21.5815 3.28692C19.3647 1.71793 16.7158 0.87524 14 0.875015Z" fill="#FFD54B"/>
<path d="M13.3781 2.34796C11.013 2.34796 8.70098 3.04931 6.73445 4.3633C4.76791 5.6773 3.23518 7.54494 2.33008 9.73004C1.42498 11.9151 1.18817 14.3196 1.64958 16.6392C2.111 18.9589 3.24992 21.0897 4.92232 22.7621C6.59472 24.4345 8.72549 25.5734 11.0452 26.0349C13.3649 26.4963 15.7693 26.2595 17.9544 25.3544C20.1395 24.4493 22.0071 22.9165 23.3211 20.95C24.6351 18.9834 25.3365 16.6714 25.3365 14.3063C25.3335 11.1356 24.0727 8.0957 21.8307 5.85372C19.5887 3.61173 16.5488 2.3509 13.3781 2.34796ZM13.3781 25.3406C11.1953 25.3407 9.06138 24.6936 7.24634 23.4809C5.43129 22.2682 4.0166 20.5446 3.18117 18.5279C2.34574 16.5112 2.1271 14.2921 2.55288 12.1512C2.97867 10.0102 4.02976 8.04363 5.57325 6.50007C7.11673 4.9565 9.08328 3.9053 11.2242 3.4794C13.3651 3.0535 15.5842 3.27203 17.601 4.10735C19.6177 4.94268 21.3414 6.35727 22.5542 8.17226C23.7669 9.98724 24.4142 12.1211 24.4142 14.304C24.411 17.23 23.2472 20.0352 21.1783 22.1043C19.1093 24.1733 16.3041 25.3372 13.3781 25.3406Z" fill="#EF9C35"/>
<path d="M14.0158 2.03644C11.6506 2.03644 9.33862 2.73778 7.37208 4.05178C5.40554 5.36578 3.87281 7.23342 2.96771 9.41852C2.06262 11.6036 1.8258 14.008 2.28722 16.3277C2.74863 18.6474 3.88755 20.7782 5.55995 22.4506C7.23236 24.123 9.36313 25.2619 11.6828 25.7233C14.0025 26.1847 16.4069 25.9479 18.592 25.0428C20.7771 24.1377 22.6448 22.605 23.9588 20.6385C25.2728 18.6719 25.9741 16.3599 25.9741 13.9948C25.9712 10.8241 24.7103 7.78418 22.4683 5.54219C20.2264 3.30021 17.1864 2.03937 14.0158 2.03644ZM14.0158 25.0291C11.8329 25.0292 9.69902 24.382 7.88397 23.1694C6.06892 21.9567 4.65423 20.2331 3.81881 18.2164C2.98338 16.1997 2.76473 13.9806 3.19052 11.8396C3.6163 9.69871 4.6674 7.73211 6.21088 6.18854C7.75436 4.64498 9.72091 3.59378 11.8618 3.16788C14.0027 2.74198 16.2219 2.96051 18.2386 3.79583C20.2553 4.63115 21.9791 6.04575 23.1918 7.86073C24.4046 9.67572 25.0519 11.8096 25.0519 13.9924C25.0486 16.9184 23.8849 19.7237 21.8159 21.7928C19.747 23.8618 16.9418 25.0257 14.0158 25.0291Z" fill="#FBBE3D"/>
<path d="M15.2787 13.125H14.6953V9.11225H15.2787C15.8107 9.11287 16.3207 9.32449 16.6969 9.70068C17.0731 10.0769 17.2847 10.5869 17.2853 11.1189C17.2853 11.351 17.3775 11.5735 17.5416 11.7376C17.7057 11.9017 17.9283 11.9939 18.1603 11.9939C18.3924 11.9939 18.615 11.9017 18.7791 11.7376C18.9432 11.5735 19.0353 11.351 19.0353 11.1189C19.0343 10.1229 18.6381 9.16803 17.9338 8.46375C17.2296 7.75947 16.2747 7.36334 15.2787 7.36225H14.6953V5.48334C14.6953 5.25127 14.6032 5.02871 14.4391 4.86462C14.275 4.70052 14.0524 4.60834 13.8203 4.60834C13.5883 4.60834 13.3657 4.70052 13.2016 4.86462C13.0375 5.02871 12.9453 5.25127 12.9453 5.48334V7.36225H12.362C11.8648 7.35606 11.3713 7.44864 10.9101 7.63464C10.4489 7.82063 10.0292 8.09634 9.67544 8.44577C9.32163 8.79519 9.04072 9.21139 8.84899 9.67021C8.65726 10.129 8.55853 10.6214 8.55853 11.1186C8.55853 11.6159 8.65726 12.1082 8.84899 12.567C9.04072 13.0259 9.32163 13.4421 9.67544 13.7915C10.0292 14.1409 10.4489 14.4166 10.9101 14.6026C11.3713 14.7886 11.8648 14.8812 12.362 14.875H12.9453V18.8878H12.362C11.83 18.8871 11.32 18.6755 10.9438 18.2993C10.5676 17.9231 10.356 17.4131 10.3553 16.8811C10.3553 16.649 10.2632 16.4265 10.0991 16.2624C9.93497 16.0983 9.71241 16.0061 9.48034 16.0061C9.24828 16.0061 9.02572 16.0983 8.86163 16.2624C8.69753 16.4265 8.60534 16.649 8.60534 16.8811C8.60642 17.8771 9.00256 18.832 9.70684 19.5363C10.4111 20.2405 11.366 20.6367 12.362 20.6378H12.9453V22.5167C12.9453 22.7487 13.0375 22.9713 13.2016 23.1354C13.3657 23.2995 13.5883 23.3917 13.8203 23.3917C14.0524 23.3917 14.275 23.2995 14.4391 23.1354C14.6032 22.9713 14.6953 22.7487 14.6953 22.5167V20.6378H15.2787C15.7759 20.644 16.2694 20.5514 16.7306 20.3654C17.1918 20.1794 17.6114 19.9037 17.9653 19.5542C18.3191 19.2048 18.6 18.7886 18.7917 18.3298C18.9834 17.871 19.0822 17.3787 19.0822 16.8814C19.0822 16.3841 18.9834 15.8918 18.7917 15.433C18.6 14.9741 18.3191 14.5579 17.9653 14.2085C17.6114 13.8591 17.1918 13.5834 16.7306 13.3974C16.2694 13.2114 15.7759 13.1188 15.2787 13.125ZM12.3579 13.125C12.0916 13.1295 11.827 13.081 11.5796 12.9822C11.3322 12.8834 11.1069 12.7364 10.9169 12.5496C10.727 12.3628 10.5761 12.1401 10.4731 11.8944C10.3701 11.6488 10.317 11.385 10.317 11.1186C10.317 10.8522 10.3701 10.5885 10.4731 10.3428C10.5761 10.0971 10.727 9.87442 10.9169 9.68766C11.1069 9.5009 11.3322 9.35383 11.5796 9.25504C11.827 9.15625 12.0916 9.10771 12.3579 9.11225H12.9413V13.125H12.3579ZM15.2787 18.8878H14.6953V14.875H15.2787C15.545 14.8705 15.8096 14.919 16.057 15.0178C16.3044 15.1166 16.5297 15.2636 16.7197 15.4504C16.9096 15.6372 17.0605 15.8599 17.1635 16.1056C17.2665 16.3512 17.3196 16.615 17.3196 16.8814C17.3196 17.1478 17.2665 17.4115 17.1635 17.6572C17.0605 17.9029 16.9096 18.1256 16.7197 18.3124C16.5297 18.4991 16.3044 18.6462 16.057 18.745C15.8096 18.8438 15.545 18.8923 15.2787 18.8878Z" fill="#B5843A"/>
<path d="M13.818 23.1C13.6633 23.1 13.5149 23.0386 13.4055 22.9292C13.2961 22.8198 13.2347 22.6714 13.2347 22.5167V20.3461H12.3597C11.441 20.345 10.5603 19.9796 9.91076 19.33C9.26118 18.6805 8.89577 17.7998 8.89469 16.8811C8.89469 16.7264 8.95615 16.578 9.06554 16.4686C9.17494 16.3592 9.32331 16.2978 9.47802 16.2978C9.63273 16.2978 9.7811 16.3592 9.8905 16.4686C9.9999 16.578 10.0614 16.7264 10.0614 16.8811C10.062 17.4905 10.3043 18.0747 10.7352 18.5056C11.1661 18.9365 11.7503 19.1788 12.3597 19.1794H13.2347V14.5834H12.3597C11.9009 14.5893 11.4455 14.5041 11.0199 14.3326C10.5944 14.1612 10.2071 13.9069 9.88055 13.5846C9.55403 13.2623 9.29476 12.8783 9.11781 12.455C8.94085 12.0317 8.84973 11.5775 8.84973 11.1186C8.84973 10.6598 8.94085 10.2056 9.11781 9.78227C9.29476 9.35896 9.55403 8.975 9.88055 8.65268C10.2071 8.33036 10.5944 8.0761 11.0199 7.90466C11.4455 7.73321 11.9009 7.64799 12.3597 7.65394H13.2347V5.48336C13.2347 5.32865 13.2961 5.18028 13.4055 5.07088C13.5149 4.96148 13.6633 4.90002 13.818 4.90002C13.9727 4.90002 14.1211 4.96148 14.2305 5.07088C14.3399 5.18028 14.4014 5.32865 14.4014 5.48336V7.65394H15.2764C16.195 7.65502 17.0757 8.02043 17.7253 8.67001C18.3749 9.31959 18.7403 10.2003 18.7414 11.1189C18.7414 11.2737 18.6799 11.422 18.5705 11.5314C18.4611 11.6408 18.3127 11.7023 18.158 11.7023C18.0033 11.7023 17.8549 11.6408 17.7455 11.5314C17.6361 11.422 17.5747 11.2737 17.5747 11.1189C17.5741 10.5096 17.3317 9.92534 16.9008 9.49446C16.47 9.06357 15.8857 8.82123 15.2764 8.82061H14.4014V13.4167H15.2764C15.7351 13.4107 16.1905 13.496 16.6161 13.6674C17.0417 13.8389 17.429 14.0931 17.7555 14.4154C18.082 14.7377 18.3413 15.1217 18.5182 15.545C18.6952 15.9683 18.7863 16.4226 18.7863 16.8814C18.7863 17.3402 18.6952 17.7945 18.5182 18.2178C18.3413 18.6411 18.082 19.025 17.7555 19.3474C17.429 19.6697 17.0417 19.9239 16.6161 20.0954C16.1905 20.2668 15.7351 20.3521 15.2764 20.3461H14.4014V22.5167C14.4014 22.6714 14.3399 22.8198 14.2305 22.9292C14.1211 23.0386 13.9727 23.1 13.818 23.1ZM14.4014 19.1794H15.2764C15.5812 19.1843 15.884 19.1284 16.1671 19.0151C16.4501 18.9018 16.7078 18.7333 16.9251 18.5195C17.1424 18.3056 17.315 18.0506 17.4328 17.7694C17.5506 17.4882 17.6113 17.1863 17.6113 16.8814C17.6113 16.5765 17.5506 16.2746 17.4328 15.9934C17.315 15.7122 17.1424 15.4572 16.9251 15.2433C16.7078 15.0295 16.4501 14.861 16.1671 14.7477C15.884 14.6344 15.5812 14.5785 15.2764 14.5834H14.4014V19.1794ZM12.3597 8.82061C12.0548 8.81575 11.752 8.8716 11.469 8.98491C11.1859 9.09822 10.9282 9.26671 10.7109 9.48059C10.4936 9.69446 10.321 9.94944 10.2032 10.2307C10.0854 10.5119 10.0247 10.8137 10.0247 11.1186C10.0247 11.4236 10.0854 11.7254 10.2032 12.0066C10.321 12.2879 10.4936 12.5428 10.7109 12.7567C10.9282 12.9706 11.1859 13.1391 11.469 13.2524C11.752 13.3657 12.0548 13.4215 12.3597 13.4167H13.2347V8.82061H12.3597Z" fill="#8F5F00"/>
<path d="M14.1097 14.7496V19.3457H14.9847C15.4541 19.3456 15.9121 19.2005 16.296 18.9304C15.9802 19.0918 15.631 19.1771 15.2763 19.1795H14.4013V14.7496H14.1097Z" fill="#7A4818"/>
<path d="M9.04871 16.492C9.09268 16.4771 9.13834 16.4677 9.18462 16.464C9.33933 16.464 9.48771 16.5255 9.5971 16.6349C9.7065 16.7443 9.76796 16.8927 9.76796 17.0474C9.76857 17.6567 10.0109 18.241 10.4418 18.6719C10.8727 19.1027 11.4569 19.3451 12.0663 19.3457H12.9413V19.1795H12.358C11.7486 19.1788 11.1644 18.9365 10.7335 18.5056C10.3026 18.0747 10.0602 17.4905 10.0596 16.8811C10.0596 16.7264 9.99816 16.578 9.88877 16.4686C9.77937 16.3592 9.631 16.2978 9.47629 16.2978C9.39539 16.2984 9.31552 16.316 9.24186 16.3495C9.1682 16.383 9.10239 16.4315 9.04871 16.492Z" fill="#7A4818"/>
<path d="M13.5264 5.06627C13.6811 5.06627 13.8295 5.12773 13.9389 5.23713C14.0483 5.34653 14.1097 5.4949 14.1097 5.64961V7.82019H14.9847C15.9033 7.82127 16.7839 8.1866 17.4334 8.83605C18.083 9.48551 18.4485 10.3661 18.4497 11.2846C18.4487 11.4295 18.3931 11.5686 18.294 11.6743C18.4201 11.6455 18.5329 11.5751 18.6141 11.4743C18.6953 11.3735 18.7402 11.2483 18.7414 11.1189C18.7403 10.2003 18.3749 9.31959 17.7253 8.67001C17.0757 8.02043 16.195 7.65502 15.2764 7.65394H14.4014V5.48336C14.4014 5.32865 14.3399 5.18028 14.2305 5.07088C14.1211 4.96148 13.9728 4.90002 13.8181 4.90002C13.7373 4.90065 13.6576 4.91821 13.584 4.95157C13.5105 4.98493 13.4447 5.03335 13.3911 5.09369C13.4349 5.07923 13.4803 5.07002 13.5264 5.06627Z" fill="#7A4818"/>
<path d="M14.1097 20.5123V22.6829C14.1085 22.8276 14.0529 22.9665 13.954 23.072C14.0802 23.0433 14.193 22.9728 14.2741 22.872C14.3553 22.7713 14.4002 22.6461 14.4014 22.5167V20.5123H14.1097Z" fill="#7A4818"/>
<path d="M11.0466 9.23596C10.5819 9.46478 10.2084 9.84433 9.98705 10.3127C9.76573 10.781 9.70965 11.3106 9.82795 11.8149C9.94625 12.3192 10.2319 12.7686 10.6384 13.0897C11.0449 13.4108 11.5483 13.5847 12.0663 13.583H12.9413V13.4167H12.3579C11.8687 13.4175 11.3919 13.2619 10.9973 12.9727C10.6027 12.6834 10.3109 12.2755 10.1645 11.8087C10.018 11.3418 10.0246 10.8404 10.1833 10.3776C10.342 9.91473 10.6445 9.51474 11.0466 9.23596Z" fill="#7A4818"/>
<path d="M15.2787 13.4167H14.4037V8.98688H14.1121V13.583H14.9871C15.7375 13.5823 16.4678 13.8254 17.068 14.2758C17.6681 14.7263 18.1057 15.3595 18.3148 16.0802C18.5238 16.8009 18.493 17.57 18.2269 18.2717C17.9609 18.9733 17.474 19.5695 16.8397 19.9705C17.5356 19.6198 18.0928 19.0446 18.4212 18.338C18.7496 17.6314 18.8301 16.8346 18.6495 16.0766C18.469 15.3186 18.038 14.6437 17.4263 14.161C16.8146 13.6783 16.0579 13.4161 15.2787 13.4167Z" fill="#7A4818"/>
<path d="M12.0663 7.82018H12.9413V7.65393H12.358C11.7014 7.65414 11.0585 7.84218 10.5053 8.19585C10.9887 7.94931 11.5236 7.82058 12.0663 7.82018Z" fill="#7A4818"/>
</g>
<defs>
<clipPath id="clip0_1_101">
<rect width="28" height="28" fill="white"/>
</clipPath>
</defs>
</svg>
