<svg width="30" height="30" viewBox="0 0 30 30" fill="none" xmlns="http://www.w3.org/2000/svg">
<path d="M15 17.125C12.9494 17.125 11.2812 19.0322 11.2812 21.375C11.2812 23.7178 12.9494 25.625 15 25.625C17.0506 25.625 18.7188 23.7178 18.7188 21.375C18.7188 19.0322 17.0506 17.125 15 17.125ZM15 24.5625C13.5338 24.5625 12.3438 23.1334 12.3438 21.375C12.3438 19.6166 13.5338 18.1875 15 18.1875C16.4662 18.1875 17.6562 19.6166 17.6562 21.375C17.6562 23.1334 16.4662 24.5625 15 24.5625Z" fill="#DD8741"/>
<path d="M28.1484 13.0556L23.8984 5.68717C23.5462 5.0771 22.966 4.63195 22.2856 4.44963C21.6051 4.26731 20.8801 4.36276 20.27 4.71499C20.0256 4.85842 20.8703 5.24624 13.1247 0.79436C12.5152 0.441693 11.7907 0.345432 11.1103 0.526735C10.4299 0.708038 9.84939 1.15207 9.49625 1.76123C2.37219 14.1075 3.21156 12.875 2.78125 12.875C2.07677 12.875 1.40114 13.1548 0.902998 13.653C0.404854 14.1511 0.125 14.8268 0.125 15.5312V27.2187C0.125 27.9232 0.404854 28.5988 0.902998 29.097C1.40114 29.5951 2.07677 29.875 2.78125 29.875H27.2188C27.9232 29.875 28.5989 29.5951 29.097 29.097C29.5951 28.5988 29.875 27.9232 29.875 27.2187V15.5312C29.8724 14.9921 29.7059 14.4666 29.3975 14.0244C29.0891 13.5822 28.6535 13.2443 28.1484 13.0556ZM22.9688 6.21842L26.815 12.875H25.5931L23.1228 8.59311C23.0881 8.53224 23.0417 8.47883 22.9863 8.43597C22.9308 8.3931 22.8675 8.36163 22.7998 8.34336C22.7322 8.32509 22.6616 8.32038 22.5921 8.32951C22.5226 8.33864 22.4556 8.36142 22.395 8.39655C22.2136 8.50131 22.0134 8.5693 21.8058 8.59663C21.5981 8.62396 21.3871 8.61009 21.1848 8.55582C20.9825 8.50155 20.7929 8.40793 20.6268 8.28033C20.4607 8.15273 20.3214 7.99365 20.2169 7.81217C20.1822 7.7513 20.1358 7.69789 20.0803 7.65503C20.0249 7.61216 19.9615 7.58069 19.8939 7.56242C19.8262 7.54415 19.7556 7.53944 19.6862 7.54857C19.6167 7.5577 19.5497 7.58048 19.4891 7.61561L10.3834 12.875H8.25844L20.7959 5.63936C21.1611 5.42902 21.5947 5.37185 22.0019 5.48037C22.4091 5.58889 22.7567 5.85425 22.9688 6.21842ZM19.6006 8.77905C19.9464 9.17059 20.3999 9.45149 20.9045 9.58661C21.4091 9.72173 21.9423 9.70508 22.4375 9.53873L24.3659 12.875H12.5084L19.6006 8.77905ZM7.07375 12.3437L10.9572 5.61811C11.4521 5.78269 11.9846 5.79791 12.4881 5.66187C12.9917 5.52583 13.444 5.24455 13.7887 4.85311L16.9125 6.65936L7.07375 12.3437ZM10.4206 2.2978C10.6327 1.93363 10.9803 1.66826 11.3875 1.55974C11.7947 1.45122 12.2283 1.50839 12.5934 1.71874L19.0375 5.43749L17.975 6.05374L13.9056 3.7003C13.7836 3.63104 13.6392 3.61283 13.5039 3.64966C13.3685 3.68648 13.2532 3.77535 13.1831 3.89686C13.0786 4.07904 12.939 4.23875 12.7725 4.36681C12.606 4.49488 12.4158 4.58876 12.2129 4.64307C12.01 4.69738 11.7984 4.71103 11.5901 4.68326C11.3819 4.65549 11.1813 4.58683 10.9997 4.48124C10.9391 4.44611 10.8721 4.42333 10.8026 4.4142C10.7331 4.40507 10.6625 4.40978 10.5949 4.42805C10.5272 4.44632 10.4639 4.47779 10.4084 4.52065C10.353 4.56352 10.3066 4.61692 10.2719 4.6778L5.53312 12.875H4.30594L10.4206 2.2978ZM28.8125 27.2187C28.8125 27.6414 28.6446 28.0468 28.3457 28.3457C28.0468 28.6446 27.6414 28.8125 27.2188 28.8125H2.78125C2.35856 28.8125 1.95318 28.6446 1.6543 28.3457C1.35541 28.0468 1.1875 27.6414 1.1875 27.2187V15.5312C1.1875 15.1085 1.35541 14.7032 1.6543 14.4043C1.95318 14.1054 2.35856 13.9375 2.78125 13.9375H27.2188C27.6414 13.9375 28.0468 14.1054 28.3457 14.4043C28.6446 14.7032 28.8125 15.1085 28.8125 15.5312V27.2187Z" fill="#DD8741"/>
<path d="M27.2188 17.125C26.7961 17.125 26.3907 16.9571 26.0918 16.6582C25.7929 16.3593 25.625 15.9539 25.625 15.5312C25.625 15.3904 25.569 15.2552 25.4694 15.1556C25.3698 15.056 25.2346 15 25.0938 15H4.90625C4.76535 15 4.63023 15.056 4.5306 15.1556C4.43097 15.2552 4.375 15.3904 4.375 15.5312C4.375 15.9539 4.20709 16.3593 3.9082 16.6582C3.60932 16.9571 3.20394 17.125 2.78125 17.125C2.64035 17.125 2.50523 17.181 2.4056 17.2806C2.30597 17.3802 2.25 17.5154 2.25 17.6562V25.0938C2.25 25.2346 2.30597 25.3698 2.4056 25.4694C2.50523 25.569 2.64035 25.625 2.78125 25.625C3.20394 25.625 3.60932 25.7929 3.9082 26.0918C4.20709 26.3907 4.375 26.7961 4.375 27.2188C4.375 27.3596 4.43097 27.4948 4.5306 27.5944C4.63023 27.694 4.76535 27.75 4.90625 27.75H25.0938C25.2346 27.75 25.3698 27.694 25.4694 27.5944C25.569 27.4948 25.625 27.3596 25.625 27.2188C25.625 26.7961 25.7929 26.3907 26.0918 26.0918C26.3907 25.7929 26.7961 25.625 27.2188 25.625C27.3596 25.625 27.4948 25.569 27.5944 25.4694C27.694 25.3698 27.75 25.2346 27.75 25.0938V17.6562C27.75 17.5154 27.694 17.3802 27.5944 17.2806C27.4948 17.181 27.3596 17.125 27.2188 17.125ZM26.6875 24.6156C26.177 24.7197 25.7084 24.9717 25.34 25.34C24.9717 25.7084 24.7197 26.177 24.6156 26.6875H5.38437C5.28027 26.177 5.02834 25.7084 4.65995 25.34C4.29156 24.9717 3.82297 24.7197 3.3125 24.6156V18.1344C3.82297 18.0303 4.29156 17.7783 4.65995 17.41C5.02834 17.0416 5.28027 16.573 5.38437 16.0625H24.6156C24.7197 16.573 24.9717 17.0416 25.34 17.41C25.7084 17.7783 26.177 18.0303 26.6875 18.1344V24.6156Z" fill="#DD8741"/>
</svg>
