<svg width="200" height="28" viewBox="0 0 200 28" fill="none" xmlns="http://www.w3.org/2000/svg">
<path d="M4.24219 6.9375V24H1.98047V6.9375H4.24219ZM11.3906 14.6133V16.4648H3.75V14.6133H11.3906ZM12.5508 6.9375V8.78906H3.75V6.9375H12.5508ZM17.6719 6.9375V24H15.4102V6.9375H17.6719ZM27.7383 6.9375V24H25.5117V6.9375H27.7383ZM33.2227 6.9375V8.78906H20.0391V6.9375H33.2227ZM46.5938 22.1602V24H37.5586V22.1602H46.5938ZM38.0156 6.9375V24H35.7539V6.9375H38.0156ZM45.3984 14.2734V16.1133H37.5586V14.2734H45.3984ZM46.4766 6.9375V8.78906H37.5586V6.9375H46.4766ZM49.3945 6.9375H55.043C56.3242 6.9375 57.4062 7.13281 58.2891 7.52344C59.1797 7.91406 59.8555 8.49219 60.3164 9.25781C60.7852 10.0156 61.0195 10.9492 61.0195 12.0586C61.0195 12.8398 60.8594 13.5547 60.5391 14.2031C60.2266 14.8438 59.7734 15.3906 59.1797 15.8438C58.5938 16.2891 57.8906 16.6211 57.0703 16.8398L56.4375 17.0859H51.1289L51.1055 15.2461H55.1133C55.9258 15.2461 56.6016 15.1055 57.1406 14.8242C57.6797 14.5352 58.0859 14.1484 58.3594 13.6641C58.6328 13.1797 58.7695 12.6445 58.7695 12.0586C58.7695 11.4023 58.6406 10.8281 58.3828 10.3359C58.125 9.84375 57.7188 9.46484 57.1641 9.19922C56.6172 8.92578 55.9102 8.78906 55.043 8.78906H51.6562V24H49.3945V6.9375ZM59.3672 24L55.2188 16.2656L57.5742 16.2539L61.7812 23.8594V24H59.3672Z" fill="white"/>
<path d="M80.4844 22.1602V24H71.9531V22.1602H80.4844ZM72.3984 6.9375V24H70.1367V6.9375H72.3984ZM95.4375 14.9297V16.0078C95.4375 17.2891 95.2773 18.4375 94.957 19.4531C94.6367 20.4688 94.1758 21.332 93.5742 22.043C92.9727 22.7539 92.25 23.2969 91.4062 23.6719C90.5703 24.0469 89.6328 24.2344 88.5938 24.2344C87.5859 24.2344 86.6602 24.0469 85.8164 23.6719C84.9805 23.2969 84.2539 22.7539 83.6367 22.043C83.0273 21.332 82.5547 20.4688 82.2188 19.4531C81.8828 18.4375 81.7148 17.2891 81.7148 16.0078V14.9297C81.7148 13.6484 81.8789 12.5039 82.207 11.4961C82.543 10.4805 83.0156 9.61719 83.625 8.90625C84.2344 8.1875 84.957 7.64062 85.793 7.26562C86.6367 6.89062 87.5625 6.70312 88.5703 6.70312C89.6094 6.70312 90.5469 6.89062 91.3828 7.26562C92.2266 7.64062 92.9492 8.1875 93.5508 8.90625C94.1602 9.61719 94.625 10.4805 94.9453 11.4961C95.2734 12.5039 95.4375 13.6484 95.4375 14.9297ZM93.1992 16.0078V14.9062C93.1992 13.8906 93.0938 12.9922 92.8828 12.2109C92.6797 11.4297 92.3789 10.7734 91.9805 10.2422C91.582 9.71094 91.0938 9.30859 90.5156 9.03516C89.9453 8.76172 89.2969 8.625 88.5703 8.625C87.8672 8.625 87.2305 8.76172 86.6602 9.03516C86.0977 9.30859 85.6133 9.71094 85.207 10.2422C84.8086 10.7734 84.5 11.4297 84.2812 12.2109C84.0625 12.9922 83.9531 13.8906 83.9531 14.9062V16.0078C83.9531 17.0312 84.0625 17.9375 84.2812 18.7266C84.5 19.5078 84.8125 20.168 85.2188 20.707C85.6328 21.2383 86.1211 21.6406 86.6836 21.9141C87.2539 22.1875 87.8906 22.3242 88.5938 22.3242C89.3281 22.3242 89.9805 22.1875 90.5508 21.9141C91.1211 21.6406 91.6016 21.2383 91.9922 20.707C92.3906 20.168 92.6914 19.5078 92.8945 18.7266C93.0977 17.9375 93.1992 17.0312 93.1992 16.0078ZM104.801 6.9375V24H102.574V6.9375H104.801ZM110.285 6.9375V8.78906H97.1016V6.9375H110.285ZM119.309 6.9375V24H117.082V6.9375H119.309ZM124.793 6.9375V8.78906H111.609V6.9375H124.793ZM138.164 22.1602V24H129.129V22.1602H138.164ZM129.586 6.9375V24H127.324V6.9375H129.586ZM136.969 14.2734V16.1133H129.129V14.2734H136.969ZM138.047 6.9375V8.78906H129.129V6.9375H138.047ZM140.965 6.9375H146.613C147.895 6.9375 148.977 7.13281 149.859 7.52344C150.75 7.91406 151.426 8.49219 151.887 9.25781C152.355 10.0156 152.59 10.9492 152.59 12.0586C152.59 12.8398 152.43 13.5547 152.109 14.2031C151.797 14.8438 151.344 15.3906 150.75 15.8438C150.164 16.2891 149.461 16.6211 148.641 16.8398L148.008 17.0859H142.699L142.676 15.2461H146.684C147.496 15.2461 148.172 15.1055 148.711 14.8242C149.25 14.5352 149.656 14.1484 149.93 13.6641C150.203 13.1797 150.34 12.6445 150.34 12.0586C150.34 11.4023 150.211 10.8281 149.953 10.3359C149.695 9.84375 149.289 9.46484 148.734 9.19922C148.188 8.92578 147.48 8.78906 146.613 8.78906H143.227V24H140.965V6.9375ZM150.938 24L146.789 16.2656L149.145 16.2539L153.352 23.8594V24H150.938ZM155.977 6.9375L160.406 15.5039L164.848 6.9375H167.414L161.531 17.625V24H159.27V17.625L153.387 6.9375H155.977Z" fill="#17E72C"/>
<g clip-path="url(#clip0_1_60)">
<path d="M181.773 1.43062C181.806 1.45294 181.84 1.47437 181.878 1.49712C181.894 1.50631 181.911 1.51506 181.927 1.52425C181.971 1.547 182.015 1.568 182.063 1.59206C182.078 1.59906 182.093 1.60606 182.107 1.61263C182.459 1.75967 182.826 1.86964 183.201 1.94075L183.217 1.94381C183.33 1.967 183.449 1.98756 183.573 2.00944C184.376 2.13417 185.188 2.19372 186 2.1875C188.415 2.1875 189.938 1.75 190.375 1.3125C190.375 1.3125 189.5 0.4375 186 0.4375C182.5 0.4375 181.625 1.3125 181.625 1.3125C181.659 1.34568 181.696 1.37638 181.734 1.40437C181.746 1.41312 181.76 1.42187 181.773 1.43062Z" fill="#DE8800"/>
<path d="M182.106 1.6126C182.091 1.60604 182.076 1.59904 182.063 1.59204C182.078 1.59904 182.092 1.60604 182.106 1.6126Z" fill="#FFC608"/>
<path d="M183.574 2.00944L183.725 2.5375C183.876 3.06676 184.195 3.53244 184.634 3.86401C185.074 4.19558 185.609 4.37496 186.159 4.375H188.069C188.605 4.3729 189.124 4.18226 189.534 3.83644L190.375 1.3125C189.938 1.75 188.415 2.1875 186 2.1875C185.188 2.1937 184.376 2.13415 183.574 2.00944Z" fill="#FFC608"/>
<path d="M188.214 7.875H185.566C183.794 8.87819 182.328 10.3446 181.325 12.1172C180.323 13.8898 179.822 15.9018 179.875 17.9375C179.875 26.25 196.938 24.9375 196.938 21C196.938 17.8325 193.193 9.835 188.214 7.875Z" fill="#FFC608"/>
<path d="M181.878 1.4971C181.84 1.47523 181.806 1.45335 181.773 1.4306C181.806 1.45292 181.84 1.47523 181.878 1.4971Z" fill="#F09413"/>
<path d="M183.574 2.00941C183.449 1.98929 183.331 1.96566 183.217 1.94379C183.331 1.96872 183.449 1.98929 183.574 2.00941Z" fill="#F09413"/>
<path d="M182.063 1.59204C182.014 1.56973 181.969 1.54829 181.926 1.52423C181.969 1.54698 182.015 1.56973 182.063 1.59204Z" fill="#F09413"/>
<path d="M199.563 10.9375L198.106 11.6681L197.375 13.125L196.644 11.6681L195.188 10.9375L196.644 10.2069L197.375 8.75L198.106 10.2069L199.563 10.9375Z" fill="#FF9C00"/>
<path d="M176.812 5.6875L175.356 6.41813L174.625 7.875L173.894 6.41813L172.438 5.6875L173.894 4.95687L174.625 3.5L175.356 4.95687L176.812 5.6875Z" fill="#FF9C00"/>
<path d="M190.043 17.3906C189.973 17.5645 189.937 17.7502 189.938 17.9375V24.0756C189.504 24.0887 189.067 24.0887 188.625 24.0669V19.25C188.625 18.5238 189.168 17.8675 190.043 17.3906Z" fill="#F09413"/>
<path d="M189.514 1.75526C188.374 1.4217 187.188 1.27223 186 1.31251C184.812 1.27223 183.626 1.4217 182.486 1.75526C183.629 2.07385 184.814 2.21955 186 2.18751C187.187 2.21955 188.371 2.07385 189.514 1.75526Z" fill="#C97C10"/>
<path d="M189.899 7C189.86 6.87517 189.783 6.76578 189.678 6.68728C189.574 6.60878 189.447 6.56513 189.316 6.5625C189.486 6.55758 189.646 6.48574 189.762 6.36274C189.879 6.23973 189.942 6.07558 189.938 5.90625C189.937 5.83174 189.924 5.75785 189.899 5.6875C189.86 5.56267 189.783 5.45328 189.678 5.37478C189.574 5.29628 189.447 5.25263 189.316 5.25H182.684C182.553 5.25263 182.426 5.29628 182.322 5.37478C182.217 5.45328 182.14 5.56267 182.101 5.6875C182.076 5.75785 182.063 5.83174 182.063 5.90625C182.058 6.07558 182.121 6.23973 182.238 6.36274C182.354 6.48574 182.514 6.55758 182.684 6.5625C182.553 6.56513 182.426 6.60878 182.322 6.68728C182.217 6.76578 182.14 6.87517 182.101 7C182.076 7.07035 182.063 7.14424 182.063 7.21875C182.058 7.38808 182.121 7.55223 182.238 7.67524C182.354 7.79824 182.514 7.87008 182.684 7.875H189.316C189.486 7.87008 189.646 7.79824 189.762 7.67524C189.879 7.55223 189.942 7.38808 189.938 7.21875C189.937 7.14424 189.924 7.07035 189.899 7Z" fill="#A80132"/>
<path d="M188.695 5.25H189.063L189.534 3.83644C189.124 4.18226 188.605 4.3729 188.069 4.375H186.159C185.609 4.37496 185.074 4.19558 184.634 3.86401C184.195 3.53244 183.876 3.06676 183.725 2.5375L183.574 2.00813C183.449 1.988 183.331 1.96438 183.217 1.9425L183.2 1.94075C182.825 1.86964 182.458 1.75967 182.106 1.61263C182.091 1.60606 182.077 1.59906 182.063 1.59206C182.014 1.56975 181.968 1.54831 181.926 1.52425C181.91 1.51506 181.893 1.50631 181.877 1.49712C181.839 1.47525 181.805 1.45337 181.772 1.43062C181.759 1.42187 181.745 1.41313 181.734 1.40438C181.695 1.37635 181.659 1.34564 181.625 1.3125L182.938 5.25H188.695Z" fill="#F09413"/>
<path d="M179.875 17.9375C179.822 15.9018 180.323 13.8898 181.325 12.1172C182.328 10.3446 183.794 8.87819 185.566 7.875H183.786C178.808 9.835 175.062 17.8325 175.062 21C175.062 24.6225 179.958 27.5625 186 27.5625C192.042 27.5625 196.938 24.6225 196.938 21C196.938 24.9375 179.875 26.25 179.875 17.9375Z" fill="#FF9C00"/>
<path d="M186.438 22.3125V22.7356C186.77 22.7154 187.094 22.6238 187.388 22.467C187.681 22.3101 187.938 22.0918 188.139 21.8269C187.737 22.1398 187.242 22.3106 186.732 22.3125H186.438Z" fill="#FFAA00"/>
<path d="M185.563 22.3125H183.375C183.259 22.3125 183.148 22.2664 183.066 22.1844C182.984 22.1023 182.938 21.991 182.938 21.875V21.4375H182.5V22.3125C182.5 22.4285 182.546 22.5398 182.628 22.6219C182.71 22.7039 182.821 22.75 182.938 22.75H185.125V23.625H186V23.1875H185.563V22.3125Z" fill="#FFAA00"/>
<path d="M187.313 13.5625H186.438V14H186.875V14.4375H187.75V14H187.313V13.5625Z" fill="#FFAA00"/>
<path d="M185.563 12.6875V12.25H185.125V12.7019C185.173 12.6989 185.219 12.6875 185.268 12.6875H185.563Z" fill="#FFAA00"/>
<path d="M185.563 17.7703L184.226 17.1018C183.918 16.9499 183.648 16.7316 183.436 16.4626C183.223 16.1936 183.073 15.8807 182.996 15.5465C182.919 15.2124 182.918 14.8653 182.992 14.5305C183.066 14.1957 183.213 13.8815 183.423 13.6106C183.107 13.8486 182.858 14.1633 182.698 14.5249C182.538 14.8866 182.473 15.283 182.51 15.6767C182.547 16.0704 182.683 16.4482 182.907 16.7742C183.131 17.1002 183.434 17.3636 183.788 17.5393L185.125 18.2078V21.4375H185.563V17.7703Z" fill="#FFAA00"/>
<path d="M184.046 14.2332C184.279 14.0814 184.552 14.0004 184.83 14H185.125V16.5734L185.563 16.7921V13.5625H185.268C185.024 13.563 184.785 13.6246 184.571 13.7418C184.358 13.859 184.177 14.028 184.046 14.2332Z" fill="#FFAA00"/>
<path d="M188.188 19.9824C188.188 19.7121 188.114 19.4469 187.971 19.2169C187.829 18.987 187.626 18.8014 187.383 18.6813L186.438 18.2079V18.8641L186.946 19.1183C187.129 19.2094 187.29 19.338 187.419 19.4958C187.549 19.6536 187.644 19.837 187.697 20.034C187.751 20.2309 187.763 20.437 187.731 20.6387C187.7 20.8404 187.626 21.0331 187.515 21.2043C187.72 21.0734 187.89 20.8929 188.007 20.6794C188.125 20.4658 188.187 20.2262 188.188 19.9824Z" fill="#FFAA00"/>
<path d="M189.938 24.9375V17.9375C189.937 17.7502 189.973 17.5645 190.043 17.3906C189.168 17.8675 188.625 18.5238 188.625 19.25V26.25C188.634 26.6373 188.776 27.0098 189.028 27.3044C189.789 27.1786 190.54 26.9929 191.272 26.7487C190.445 26.2806 189.938 25.6419 189.938 24.9375Z" fill="#FF9C00"/>
<path d="M199.563 23.1875V24.9375C199.563 26.3856 197.41 27.5625 194.75 27.5625C192.09 27.5625 189.938 26.3856 189.938 24.9375V23.1875C189.938 24.6356 192.09 25.8125 194.75 25.8125C197.41 25.8125 199.563 24.6356 199.563 23.1875Z" fill="#FFCB52"/>
<path d="M199.563 19.6875V21.4375C199.563 22.8856 197.41 24.0625 194.75 24.0625C192.09 24.0625 189.938 22.8856 189.938 21.4375V19.6875C189.938 21.1356 192.09 22.3125 194.75 22.3125C197.41 22.3125 199.563 21.1356 199.563 19.6875Z" fill="#FFCB52"/>
<path d="M199.563 21.4375V23.1875C199.563 24.6356 197.41 25.8125 194.75 25.8125C192.09 25.8125 189.938 24.6356 189.938 23.1875V21.4375C189.938 22.8856 192.09 24.0625 194.75 24.0625C197.41 24.0625 199.563 22.8856 199.563 21.4375Z" fill="#F09413"/>
<path d="M199.563 17.9375V19.6875C199.563 21.1356 197.41 22.3125 194.75 22.3125C192.09 22.3125 189.938 21.1356 189.938 19.6875V17.9375C189.938 19.3856 192.09 20.5625 194.75 20.5625C197.41 20.5625 199.563 19.3856 199.563 17.9375Z" fill="#F09413"/>
<path d="M199.563 17.9375C199.563 19.3856 197.41 20.5625 194.75 20.5625C192.09 20.5625 189.938 19.3856 189.938 17.9375C189.938 16.4894 192.09 15.3125 194.75 15.3125C197.41 15.3125 199.563 16.4894 199.563 17.9375ZM197.813 17.9375C197.813 17.2113 196.443 16.625 194.75 16.625C193.057 16.625 191.688 17.2113 191.688 17.9375C191.688 18.6637 193.057 19.25 194.75 19.25C196.443 19.25 197.813 18.6637 197.813 17.9375Z" fill="#FFC052"/>
<path d="M194.75 19.25C196.441 19.25 197.813 18.6624 197.813 17.9375C197.813 17.2126 196.441 16.625 194.75 16.625C193.059 16.625 191.688 17.2126 191.688 17.9375C191.688 18.6624 193.059 19.25 194.75 19.25Z" fill="#FFDF75"/>
<path d="M199.563 18.8125V19.6875C199.563 21.1356 197.41 22.3125 194.75 22.3125C193.699 22.3282 192.655 22.124 191.688 21.7131C190.62 21.2319 189.938 20.5013 189.938 19.6875V17.9375C189.938 18.7513 190.62 19.4819 191.688 19.9631C191.686 20.2337 191.774 20.4972 191.936 20.7134C192.099 20.9295 192.328 21.0863 192.589 21.1597C193.294 21.3477 194.02 21.4411 194.75 21.4375C197.41 21.4375 199.563 20.2606 199.563 18.8125Z" fill="#DE8800"/>
<path d="M199.563 20.5625V21.4375C199.563 22.8856 197.41 24.0625 194.75 24.0625C193.699 24.0782 192.655 23.874 191.688 23.4631C190.62 22.9819 189.938 22.2513 189.938 21.4375V19.6875C189.938 20.5013 190.62 21.2319 191.688 21.7131C191.686 21.9837 191.774 22.2472 191.936 22.4634C192.099 22.6795 192.328 22.8363 192.589 22.9097C193.294 23.0977 194.02 23.1911 194.75 23.1875C197.41 23.1875 199.563 22.0106 199.563 20.5625Z" fill="#DE8800"/>
<path d="M199.563 22.3125V23.1875C199.563 24.6356 197.41 25.8125 194.75 25.8125C193.699 25.8282 192.655 25.624 191.688 25.2131C190.62 24.7319 189.938 24.0013 189.938 23.1875V21.4375C189.938 22.2513 190.62 22.9819 191.688 23.4631C191.686 23.7337 191.774 23.9972 191.936 24.2134C192.099 24.4295 192.328 24.5863 192.589 24.6597C193.294 24.8477 194.02 24.9411 194.75 24.9375C197.41 24.9375 199.563 23.7606 199.563 22.3125Z" fill="#DE8800"/>
<path d="M199.563 24.0625V24.9375C199.563 26.3856 197.41 27.5625 194.75 27.5625C193.699 27.5782 192.655 27.374 191.688 26.9631C190.62 26.4819 189.938 25.7513 189.938 24.9375V23.1875C189.938 24.0013 190.62 24.7319 191.688 25.2131C191.686 25.4837 191.774 25.7472 191.936 25.9634C192.099 26.1795 192.328 26.3363 192.589 26.4097C193.294 26.5977 194.02 26.6911 194.75 26.6875C197.41 26.6875 199.563 25.5106 199.563 24.0625Z" fill="#DE8800"/>
<path d="M186 27.125C180.21 27.125 175.5 24.3775 175.5 21C175.5 17.8421 179.286 10.1819 183.877 8.3125H188.124C190.302 9.20019 192.557 11.5036 194.321 14.651L195.085 14.2236C194.147 12.5497 192.315 9.77988 189.787 8.1935C189.927 8.1194 190.05 8.01575 190.147 7.88967C190.243 7.76358 190.312 7.61805 190.347 7.46308C190.382 7.30812 190.383 7.14738 190.35 6.99192C190.317 6.83646 190.251 6.68996 190.156 6.5625C190.298 6.37284 190.374 6.14279 190.375 5.90625C190.376 5.68001 190.307 5.45898 190.177 5.27387C190.047 5.08876 189.862 4.94875 189.649 4.87331L190.79 1.45075C190.815 1.37388 190.818 1.2915 190.799 1.21294C190.78 1.13438 190.739 1.06278 190.681 1.00625L190.685 1.00231C190.582 0.900375 189.578 0 186 0C182.422 0 181.418 0.900375 181.316 1.00319L181.319 1.00625C181.261 1.06271 181.22 1.13414 181.201 1.2125C181.182 1.29087 181.185 1.37307 181.209 1.44987L182.35 4.87244C182.137 4.948 181.953 5.08817 181.823 5.27345C181.693 5.45873 181.623 5.67992 181.625 5.90625C181.626 6.14279 181.702 6.37284 181.844 6.5625C181.749 6.69005 181.683 6.83665 181.65 6.9922C181.617 7.14775 181.618 7.30857 181.654 7.46357C181.689 7.61857 181.757 7.76409 181.854 7.8901C181.951 8.01611 182.074 8.11962 182.215 8.1935C177.819 10.9813 174.625 17.9813 174.625 21C174.625 24.8596 179.728 28 186 28C187.357 28.0036 188.709 27.8533 190.032 27.552L189.835 26.6989C188.577 26.9859 187.29 27.1289 186 27.125ZM182.684 7H189.316C189.368 7.00869 189.415 7.03543 189.448 7.07548C189.482 7.11553 189.501 7.16629 189.501 7.21875C189.501 7.27121 189.482 7.32197 189.448 7.36202C189.415 7.40207 189.368 7.42881 189.316 7.4375H182.684C182.632 7.42881 182.585 7.40207 182.552 7.36202C182.518 7.32197 182.499 7.27121 182.499 7.21875C182.499 7.16629 182.518 7.11553 182.552 7.07548C182.585 7.03543 182.632 7.00869 182.684 7ZM182.5 5.90625C182.496 5.85291 182.513 5.80009 182.547 5.75917C182.582 5.71825 182.631 5.69251 182.684 5.6875H189.316C189.368 5.69619 189.415 5.72293 189.448 5.76298C189.482 5.80303 189.501 5.85379 189.501 5.90625C189.501 5.95871 189.482 6.00947 189.448 6.04952C189.415 6.08957 189.368 6.11631 189.316 6.125H182.684C182.631 6.11999 182.582 6.09426 182.547 6.05333C182.513 6.01241 182.496 5.95959 182.5 5.90625ZM183.253 4.8125L182.378 2.18181C183.557 2.50513 184.778 2.65443 186 2.625C187.223 2.65465 188.444 2.50534 189.624 2.18181L188.749 4.8125H183.253ZM189.447 1.32038C188.327 1.6418 187.164 1.78675 186 1.75C184.836 1.7865 183.674 1.64171 182.555 1.32081C183.67 0.981615 184.835 0.830942 186 0.875C187.166 0.831087 188.33 0.981605 189.447 1.32038Z" fill="black"/>
<path d="M186.438 23.1875V22.3125H186.732C187.257 22.3126 187.767 22.1354 188.179 21.8096C188.59 21.4839 188.88 21.0287 189 20.5177C189.121 20.0068 189.066 19.4702 188.843 18.9947C188.621 18.5192 188.244 18.1328 187.775 17.8981L186.438 17.2296V13.5625H187.313V14H188.188V13.125C188.188 13.009 188.141 12.8977 188.059 12.8156C187.977 12.7336 187.866 12.6875 187.75 12.6875H186.438V11.8125H185.563V12.6875H185.268C184.743 12.6874 184.233 12.8646 183.821 13.1904C183.41 13.5161 183.12 13.9713 183 14.4823C182.879 14.9932 182.934 15.5298 183.157 16.0053C183.379 16.4808 183.756 16.8672 184.226 17.1019L185.563 17.7704V21.4375H183.813V21H182.938V21.875C182.938 21.991 182.984 22.1023 183.066 22.1844C183.148 22.2664 183.259 22.3125 183.375 22.3125H185.563V23.1875H186.438ZM184.617 16.3187C184.324 16.172 184.089 15.9307 183.95 15.6339C183.811 15.337 183.777 15.002 183.852 14.6831C183.927 14.3642 184.108 14.0801 184.365 13.8767C184.622 13.6733 184.94 13.5626 185.268 13.5625H185.563V16.7921L184.617 16.3187ZM186.438 18.2079L187.383 18.6813C187.676 18.828 187.911 19.0693 188.05 19.3661C188.189 19.663 188.223 19.998 188.148 20.3169C188.073 20.6358 187.892 20.9199 187.635 21.1233C187.378 21.3267 187.06 21.4374 186.732 21.4375H186.438V18.2079Z" fill="black"/>
<path d="M190.939 2.75531L193.563 0.130793L194.182 0.749418L191.557 3.37393L190.939 2.75531Z" fill="black"/>
<path d="M191.007 5.31787L196.257 1.81603L196.743 2.54403L191.493 6.04587L191.007 5.31787Z" fill="black"/>
<path d="M177.815 0.747314L178.434 0.12869L181.058 2.75321L180.439 3.37183L177.815 0.747314Z" fill="black"/>
<path d="M175.259 2.55188L175.745 1.82388L180.994 5.32572L180.509 6.05372L175.259 2.55188Z" fill="black"/>
<path d="M194.992 10.5459C194.919 10.5822 194.858 10.6381 194.815 10.7072C194.773 10.7763 194.75 10.856 194.75 10.9373C194.75 11.0185 194.773 11.0982 194.815 11.1673C194.858 11.2364 194.919 11.2923 194.992 11.3286L196.32 11.9927L196.983 13.3205C197.02 13.3933 197.076 13.4546 197.145 13.4974C197.214 13.5402 197.294 13.5629 197.375 13.5629C197.456 13.5629 197.536 13.5402 197.605 13.4974C197.674 13.4546 197.73 13.3933 197.767 13.3205L198.43 11.9927L199.758 11.3286C199.831 11.2923 199.892 11.2364 199.935 11.1673C199.977 11.0982 200 11.0185 200 10.9373C200 10.856 199.977 10.7763 199.935 10.7072C199.892 10.6381 199.831 10.5822 199.758 10.5459L198.43 9.88179L197.769 8.55398C197.728 8.48628 197.671 8.43024 197.602 8.39133C197.534 8.35242 197.456 8.33197 197.377 8.33197C197.298 8.33197 197.221 8.35242 197.152 8.39133C197.084 8.43024 197.026 8.48628 196.986 8.55398L196.322 9.88179L194.992 10.5459ZM197.037 10.4037L197.375 9.72823L197.713 10.4037C197.755 10.4885 197.824 10.5573 197.908 10.5997L198.584 10.9375L197.908 11.2752C197.824 11.3177 197.755 11.3863 197.713 11.4708L197.375 12.1467L197.037 11.4708C196.995 11.3863 196.926 11.3177 196.842 11.2752L196.166 10.9375L196.842 10.5997C196.926 10.5573 196.995 10.4885 197.037 10.4037Z" fill="black"/>
<path d="M175.019 8.07054L175.682 6.74273L177.01 6.0786C177.083 6.04227 177.144 5.98642 177.187 5.91729C177.23 5.84817 177.252 5.76852 177.252 5.68726C177.252 5.606 177.23 5.52634 177.187 5.45722C177.144 5.3881 177.083 5.33224 177.01 5.29591L175.68 4.63179L175.019 3.30398C174.978 3.23628 174.921 3.18024 174.852 3.14133C174.784 3.10242 174.706 3.08197 174.627 3.08197C174.548 3.08197 174.471 3.10242 174.402 3.14133C174.334 3.18024 174.276 3.23628 174.236 3.30398L173.57 4.63179L172.242 5.29591C172.169 5.33224 172.108 5.3881 172.065 5.45722C172.023 5.52634 172 5.606 172 5.68726C172 5.76852 172.023 5.84817 172.065 5.91729C172.108 5.98642 172.169 6.04227 172.242 6.0786L173.57 6.74273L174.233 8.07054C174.27 8.14334 174.326 8.20459 174.395 8.2474C174.464 8.29021 174.544 8.31288 174.625 8.31288C174.706 8.31288 174.786 8.29021 174.855 8.2474C174.924 8.20459 174.98 8.14334 175.017 8.07054H175.019ZM174.287 6.22079C174.245 6.1363 174.176 6.06773 174.092 6.02523L173.416 5.68748L174.092 5.34973C174.176 5.30729 174.245 5.23851 174.287 5.15373L174.625 4.47823L174.963 5.15373C175.005 5.23851 175.074 5.30729 175.158 5.34973L175.834 5.68748L175.158 6.02523C175.074 6.06773 175.005 6.1363 174.963 6.22079L174.625 6.89673L174.287 6.22079Z" fill="black"/>
<path d="M194.75 14.875C191.806 14.875 189.5 16.2203 189.5 17.9375V24.9375C189.5 26.6547 191.806 28 194.75 28C197.694 28 200 26.6547 200 24.9375V17.9375C200 16.2203 197.694 14.875 194.75 14.875ZM194.75 27.125C192.379 27.125 190.375 26.1231 190.375 24.9375V24.9016C191.308 25.7202 192.903 26.25 194.75 26.25C196.597 26.25 198.192 25.7202 199.125 24.9016V24.9375C199.125 26.1231 197.121 27.125 194.75 27.125ZM194.75 25.375C192.379 25.375 190.375 24.3731 190.375 23.1875V23.1516C191.308 23.9702 192.903 24.5 194.75 24.5C196.597 24.5 198.192 23.9702 199.125 23.1516V23.1875C199.125 24.3731 197.121 25.375 194.75 25.375ZM194.75 23.625C192.379 23.625 190.375 22.6231 190.375 21.4375V21.4016C191.308 22.2202 192.903 22.75 194.75 22.75C196.597 22.75 198.192 22.2202 199.125 21.4016V21.4375C199.125 22.6231 197.121 23.625 194.75 23.625ZM194.75 21.875C192.379 21.875 190.375 20.8731 190.375 19.6875V19.6516C191.308 20.4702 192.903 21 194.75 21C196.597 21 198.192 20.4702 199.125 19.6516V19.6875C199.125 20.8731 197.121 21.875 194.75 21.875ZM194.75 20.125C192.379 20.125 190.375 19.1231 190.375 17.9375C190.375 16.7519 192.379 15.75 194.75 15.75C197.121 15.75 199.125 16.7519 199.125 17.9375C199.125 19.1231 197.121 20.125 194.75 20.125Z" fill="black"/>
<path d="M194.75 16.1875C193.011 16.1875 191.25 16.7886 191.25 17.9375C191.25 19.0864 193.011 19.6875 194.75 19.6875C196.49 19.6875 198.25 19.0864 198.25 17.9375C198.25 16.7886 196.49 16.1875 194.75 16.1875ZM194.75 18.8125C193.122 18.8125 192.125 18.2438 192.125 17.9375C192.125 17.6313 193.122 17.0625 194.75 17.0625C196.378 17.0625 197.375 17.6313 197.375 17.9375C197.375 18.2438 196.378 18.8125 194.75 18.8125Z" fill="black"/>
</g>
<defs>
<clipPath id="clip0_1_60">
<rect width="28" height="28" fill="white" transform="translate(172)"/>
</clipPath>
</defs>
</svg>
