<svg width="21" height="21" viewBox="0 0 21 21" fill="none" xmlns="http://www.w3.org/2000/svg">
<path d="M10.1443 19.7967H4.66701C3.17847 19.7967 1.97071 18.5845 1.97071 17.1004V3.89962C1.97071 2.41108 3.18293 1.20331 4.66701 1.20331H10.2334C10.5677 1.20331 10.8351 0.935908 10.8351 0.601655C10.8351 0.267402 10.5677 0 10.2334 0H4.66701C2.51442 0 0.767395 1.75149 0.767395 3.89962V17.1004C0.767395 19.253 2.51888 21 4.66701 21H10.1443C10.4786 21 10.746 20.7326 10.746 20.3983C10.746 20.0641 10.4741 19.7967 10.1443 19.7967Z" fill="#FFC608"/>
<path d="M20.056 10.0766L16.2322 6.25278C15.996 6.01657 15.6172 6.01657 15.3809 6.25278C15.1447 6.48898 15.1447 6.8678 15.3809 7.10401L18.1798 9.90282H5.97284C5.63859 9.90282 5.37119 10.1702 5.37119 10.5045C5.37119 10.8387 5.63859 11.1061 5.97284 11.1061H18.1798L15.3809 13.9049C15.1447 14.1411 15.1447 14.52 15.3809 14.7562C15.4968 14.872 15.6528 14.9344 15.8043 14.9344C15.9559 14.9344 16.1118 14.8765 16.2277 14.7562L20.0516 10.9323C20.2922 10.6917 20.2922 10.3084 20.056 10.0766Z" fill="#FFC608"/>
</svg>
