<svg width="44" height="44" viewBox="0 0 44 44" fill="none" xmlns="http://www.w3.org/2000/svg">
<path d="M22 0.125C17.6735 0.125 13.4442 1.40795 9.84691 3.8116C6.24959 6.21526 3.44581 9.63167 1.79014 13.6288C0.134478 17.6259 -0.29872 22.0243 0.545332 26.2676C1.38938 30.5109 3.47277 34.4087 6.53205 37.468C9.59132 40.5272 13.4891 42.6106 17.7324 43.4547C21.9757 44.2987 26.3741 43.8655 30.3712 42.2099C34.3683 40.5542 37.7848 37.7504 40.1884 34.1531C42.5921 30.5558 43.875 26.3265 43.875 22C43.875 16.1984 41.5703 10.6344 37.468 6.53204C33.3656 2.42968 27.8016 0.125 22 0.125ZM22 40.75C18.2916 40.75 14.6665 39.6503 11.5831 37.5901C8.49965 35.5298 6.09641 32.6014 4.67727 29.1753C3.25813 25.7492 2.88681 21.9792 3.61029 18.3421C4.33376 14.7049 6.11952 11.364 8.74176 8.74175C11.364 6.11951 14.7049 4.33375 18.3421 3.61028C21.9792 2.8868 25.7492 3.25812 29.1753 4.67726C32.6014 6.0964 35.5298 8.49964 37.5901 11.5831C39.6503 14.6665 40.75 18.2916 40.75 22C40.75 26.9728 38.7746 31.7419 35.2583 35.2583C31.742 38.7746 26.9728 40.75 22 40.75ZM32.9375 22C32.9375 22.4144 32.7729 22.8118 32.4799 23.1049C32.1868 23.3979 31.7894 23.5625 31.375 23.5625H23.5625V31.375C23.5625 31.7894 23.3979 32.1868 23.1049 32.4799C22.8118 32.7729 22.4144 32.9375 22 32.9375C21.5856 32.9375 21.1882 32.7729 20.8952 32.4799C20.6021 32.1868 20.4375 31.7894 20.4375 31.375V23.5625H12.625C12.2106 23.5625 11.8132 23.3979 11.5202 23.1049C11.2271 22.8118 11.0625 22.4144 11.0625 22C11.0625 21.5856 11.2271 21.1882 11.5202 20.8951C11.8132 20.6021 12.2106 20.4375 12.625 20.4375H20.4375V12.625C20.4375 12.2106 20.6021 11.8132 20.8952 11.5201C21.1882 11.2271 21.5856 11.0625 22 11.0625C22.4144 11.0625 22.8118 11.2271 23.1049 11.5201C23.3979 11.8132 23.5625 12.2106 23.5625 12.625V20.4375H31.375C31.7894 20.4375 32.1868 20.6021 32.4799 20.8951C32.7729 21.1882 32.9375 21.5856 32.9375 22Z" fill="#DD8741"/>
</svg>
