<svg width="35" height="31" viewBox="0 0 35 31" fill="none" xmlns="http://www.w3.org/2000/svg">
<path d="M31.3542 30.0833H3.64583C1.63625 30.0833 0 28.4471 0 26.4375V23.5208C0 23.1183 0.326667 22.7917 0.729167 22.7917H1.45833C3.06688 22.7917 4.375 21.4835 4.375 19.875C4.375 18.2665 3.06688 16.9583 1.45833 16.9583H0.729167C0.326667 16.9583 0 16.6317 0 16.2292V13.3125C0 11.3029 1.63625 9.66666 3.64583 9.66666H31.3542C33.3638 9.66666 35 11.3029 35 13.3125V16.2292C35 16.6317 34.6733 16.9583 34.2708 16.9583H33.5417C31.9331 16.9583 30.625 18.2665 30.625 19.875C30.625 20.6537 30.9283 21.3858 31.4796 21.9371C32.0294 22.4883 32.7615 22.7917 33.5402 22.7917H34.2694C34.6719 22.7917 34.9985 23.1183 34.9985 23.5208V26.4375C35 28.4471 33.3638 30.0833 31.3542 30.0833ZM1.45833 24.25V26.4375C1.45833 27.6435 2.43979 28.625 3.64583 28.625H31.3542C32.5602 28.625 33.5417 27.6435 33.5417 26.4375V24.25C32.3735 24.25 31.274 23.795 30.4485 22.9696C29.6217 22.1427 29.1667 21.0431 29.1667 19.875C29.1667 17.4629 31.1296 15.5 33.5417 15.5V13.3125C33.5417 12.1065 32.5602 11.125 31.3542 11.125H3.64583C2.43979 11.125 1.45833 12.1065 1.45833 13.3125V15.5C3.87042 15.5 5.83333 17.4629 5.83333 19.875C5.83333 22.2871 3.87042 24.25 1.45833 24.25Z" fill="#DD8741"/>
<path d="M12.3958 12.5833C11.9933 12.5833 11.6667 12.2567 11.6667 11.8542V10.3958C11.6667 9.99333 11.9933 9.66666 12.3958 9.66666C12.7983 9.66666 13.125 9.99333 13.125 10.3958V11.8542C13.125 12.2567 12.7983 12.5833 12.3958 12.5833Z" fill="#DD8741"/>
<path d="M12.3958 24.9223C11.9933 24.9223 11.6667 24.5956 11.6667 24.1931V21.7271C11.6667 21.3246 11.9933 20.9979 12.3958 20.9979C12.7983 20.9979 13.125 21.3231 13.125 21.7271V24.1946C13.125 24.5971 12.7983 24.9223 12.3958 24.9223ZM12.3958 18.7535C11.9933 18.7535 11.6667 18.4269 11.6667 18.0244V15.5569C11.6667 15.1544 11.9933 14.8277 12.3958 14.8277C12.7983 14.8277 13.125 15.1544 13.125 15.5569V18.0244C13.125 18.4269 12.7983 18.7535 12.3958 18.7535Z" fill="#DD8741"/>
<path d="M12.3958 30.0833C11.9933 30.0833 11.6667 29.7567 11.6667 29.3542V27.8958C11.6667 27.4933 11.9933 27.1667 12.3958 27.1667C12.7983 27.1667 13.125 27.4933 13.125 27.8958V29.3542C13.125 29.7567 12.7983 30.0833 12.3958 30.0833Z" fill="#DD8741"/>
<path d="M3.64584 11.125C3.34979 11.125 3.07125 10.9442 2.96334 10.651C2.82188 10.2733 3.01292 9.85333 3.39063 9.71333L26.5781 1.05521C27.7054 0.632291 29.0296 1.26521 29.4146 2.40125L32.044 10.161C32.1723 10.5431 31.9681 10.9558 31.5875 11.0856C31.2098 11.2154 30.7927 11.0098 30.6629 10.6292L28.0335 2.86937C27.9052 2.49021 27.4648 2.28312 27.0871 2.42021L3.89959 11.0783C3.81646 11.1104 3.73042 11.125 3.64584 11.125Z" fill="#DD8741"/>
</svg>
