<svg width="30" height="30" viewBox="0 0 30 30" fill="none" xmlns="http://www.w3.org/2000/svg">
<g clip-path="url(#clip0_3_365)">
<path d="M22.0312 10.6058C17.6694 10.6058 14.1211 14.154 14.1211 18.5158C14.1211 22.8776 17.6693 26.4259 22.0311 26.4259C26.393 26.4259 29.9998 22.8776 29.9998 18.5158C29.9998 14.154 26.393 10.6058 22.0312 10.6058ZM22.9332 22.7515C22.9256 22.7543 22.9176 22.753 22.91 22.7557V23.7892C22.91 24.275 22.5169 24.6681 22.0311 24.6681C21.5453 24.6681 21.1522 24.275 21.1522 23.7892V22.7497C20.5733 22.5541 20.0187 22.183 19.5445 21.6177C19.2321 21.246 19.2802 20.6916 19.6527 20.38C20.0244 20.0676 20.5805 20.1157 20.8904 20.4882C21.3555 21.0418 21.8817 21.2615 22.3315 21.1002C22.6774 20.974 22.91 20.6418 22.91 20.2736C22.91 19.7887 22.516 19.3947 22.0311 19.3947C20.5771 19.3947 19.3944 18.2119 19.3944 16.7581C19.3944 15.6963 20.0261 14.7427 21.0037 14.3291C21.0521 14.3086 21.1034 14.3098 21.1522 14.2923V13.2425C21.1522 12.7567 21.5453 12.3636 22.0311 12.3636C22.5169 12.3636 22.91 12.7567 22.91 13.2425V14.2939C23.3651 14.4476 23.8089 14.692 24.2052 15.0758C24.5537 15.4132 24.5623 15.9693 24.2241 16.3187C23.8867 16.6671 23.3297 16.6749 22.9812 16.3375C22.5538 15.923 22.0809 15.7805 21.6895 15.9479C21.3633 16.086 21.1522 16.4036 21.1522 16.7581C21.1522 17.243 21.5462 17.637 22.0311 17.637C23.485 17.637 24.6677 18.8198 24.6677 20.2737C24.6679 21.3782 23.9709 22.3739 22.9332 22.7515Z" fill="#DD8741"/>
<path d="M0.879173 19.3947C0.393373 19.3947 0.000267029 19.7878 0.000267029 20.2736V29.1212C0.000267029 29.607 0.393373 30.0001 0.879173 30.0001H3.51583V19.3947H0.879173Z" fill="#DD8741"/>
<path d="M20.845 5.48578L14.6927 0.212401C14.3648 -0.0708411 13.8773 -0.0708411 13.5495 0.212401L7.39723 5.48578C7.11744 5.72437 7.01701 6.11232 7.14486 6.45738C7.2719 6.80244 7.60061 7.0316 7.96887 7.0316H10.6055C10.6055 14.63 10.6055 22.4012 10.6055 30.0001C12.8697 30.0001 14.435 30.0001 16.7578 30.0001C17.2436 30.0001 17.6367 29.607 17.6367 29.1212V27.1164C14.5112 25.5128 12.3633 22.2638 12.3633 18.5159C12.3633 14.768 14.5113 11.5189 17.6367 9.91529V7.03166H20.2734C20.6416 7.03166 20.9704 6.8025 21.0974 6.45744C21.2253 6.11232 21.1249 5.72437 20.845 5.48578Z" fill="#DD8741"/>
<path d="M6.21106 12.3636C5.72525 12.3636 5.33215 12.7567 5.33215 13.2425V19.3948V30C6.61594 30 7.60125 30 8.84772 30V12.3636H6.21106Z" fill="#DD8741"/>
</g>
<defs>
<clipPath id="clip0_3_365">
<rect width="30" height="30" fill="white"/>
</clipPath>
</defs>
</svg>
