<svg width="50" height="50" viewBox="0 0 50 50" fill="none" xmlns="http://www.w3.org/2000/svg">
<circle cx="25" cy="25" r="24.5" fill="#141420" stroke="#707293"/>
<path d="M23.3691 29.9434V32H16.9268V29.9434H23.3691ZM17.7793 19.2031V32H15.1426V19.2031H17.7793ZM31.7188 27.7549H34.3467C34.2939 28.6162 34.0566 29.3809 33.6348 30.0488C33.2188 30.7168 32.6357 31.2383 31.8857 31.6133C31.1416 31.9883 30.2451 32.1758 29.1963 32.1758C28.376 32.1758 27.6406 32.0352 26.9902 31.7539C26.3398 31.4668 25.7832 31.0566 25.3203 30.5234C24.8633 29.9902 24.5146 29.3457 24.2744 28.5898C24.0342 27.834 23.9141 26.9873 23.9141 26.0498V25.1621C23.9141 24.2246 24.0371 23.3779 24.2832 22.6221C24.5352 21.8604 24.8926 21.2129 25.3555 20.6797C25.8242 20.1465 26.3838 19.7363 27.0342 19.4492C27.6846 19.1621 28.4111 19.0186 29.2139 19.0186C30.2803 19.0186 31.1797 19.2119 31.9121 19.5986C32.6504 19.9854 33.2217 20.5186 33.626 21.1982C34.0361 21.8779 34.2822 22.6514 34.3643 23.5186H31.7275C31.6982 23.0029 31.5957 22.5664 31.4199 22.209C31.2441 21.8457 30.9775 21.5732 30.6201 21.3916C30.2686 21.2041 29.7998 21.1104 29.2139 21.1104C28.7744 21.1104 28.3906 21.1924 28.0625 21.3564C27.7344 21.5205 27.459 21.7695 27.2363 22.1035C27.0137 22.4375 26.8467 22.8594 26.7354 23.3691C26.6299 23.873 26.5771 24.4648 26.5771 25.1445V26.0498C26.5771 26.7119 26.627 27.2949 26.7266 27.7988C26.8262 28.2969 26.9785 28.7188 27.1836 29.0645C27.3945 29.4043 27.6641 29.6621 27.9922 29.8379C28.3262 30.0078 28.7275 30.0928 29.1963 30.0928C29.7471 30.0928 30.2012 30.0049 30.5586 29.8291C30.916 29.6533 31.1885 29.3926 31.376 29.0469C31.5693 28.7012 31.6836 28.2705 31.7188 27.7549Z" fill="#747495"/>
</svg>
